<?xml version="1.0" encoding="UTF-8"?>
<svg width="109px" height="113px" viewBox="0 0 109 113" version="1.1" xmlns="http://www.w3.org/2000/svg" xmlns:xlink="http://www.w3.org/1999/xlink">
    <title>任务管理 copy</title>
    <g id="公司产品图标-rivan" stroke="none" stroke-width="1" fill="none" fill-rule="evenodd">
        <g id="任务管理-copy" transform="translate(0.187750, 0.000000)" fill-rule="nonzero">
            <path d="M97.4922501,24 C103.659597,24.182641 108.5645,29.234949 108.5645,35.405 C108.5645,41.575051 103.659597,46.627359 97.4922501,46.81 L97.4922501,50.61 L91.8122501,44.92 L97.4422501,39.21 L97.4422501,43 C99.4559502,43.0120477 101.390353,42.2159527 102.81225,40.79 C104.234011,39.3604196 105.032142,37.4262105 105.03225,35.41 C105.049027,33.3816685 104.248937,31.4319011 102.81225,30 C101.411356,28.579395 99.497387,27.7828091 97.5022501,27.79 L93.7322501,27.79 L93.7322501,24 L97.4922501,24 Z" id="Path" fill="#4E5464"></path>
            <path d="M11.0722501,69.46 C4.9049029,69.642641 3.55271368e-15,74.694949 3.55271368e-15,80.865 C3.55271368e-15,87.035051 4.9049029,92.087359 11.0722501,92.27 L11.0722501,96.08 L16.7122501,90.37 L11.1122501,84.66 L11.1122501,88.47 C9.120921,88.4629516 7.21414208,87.6642631 5.81225009,86.25 C2.86368367,83.2693308 2.86368367,78.4706692 5.81225009,75.49 C7.21570562,74.0731973 9.12800585,73.2773059 11.1222501,73.28 L14.8122501,73.28 L14.8122501,69.46 L11.0722501,69.46 Z" id="Path" fill="#4E5464"></path>
            <polygon id="Path" fill="#52A304" points="86.6322501 26.15 80.7922501 32.2 26.7422501 26.15 20.9122501 6.05 26.7422501 0 86.6322501 0"></polygon>
            <polygon id="Path" fill="#CE8E00" points="86.6322501 66.09 80.7922501 72.14 26.7422501 66.09 20.9122501 45.99 26.7422501 39.94 86.6322501 39.94"></polygon>
            <polygon id="Path" fill="#125BB2" points="86.6322501 106.68 80.7922501 112.73 26.7422501 106.68 20.9122501 86.58 26.7422501 80.53 86.6322501 80.53"></polygon>
            <rect id="Rectangle" fill="#8ADD50" x="20.9122501" y="6.05" width="59.89" height="26.15"></rect>
            <rect id="Rectangle" fill="#68D31E" x="50.8522501" y="6.05" width="29.94" height="26.15"></rect>
            <rect id="Rectangle" fill="#F6E740" x="20.9122501" y="45.97" width="59.89" height="26.15"></rect>
            <rect id="Rectangle" fill="#FFB700" x="50.8522501" y="45.97" width="29.94" height="26.15"></rect>
            <rect id="Rectangle" fill="#4AB6FF" x="20.9122501" y="86.55" width="59.89" height="26.15"></rect>
            <rect id="Rectangle" fill="#1C8DFF" x="50.8522501" y="86.55" width="29.94" height="26.15"></rect>
        </g>
    </g>
</svg>